<svg viewBox="0 0 53 25" fill="none" xmlns="http://www.w3.org/2000/svg">
<path d="M5.33984 19.2344C3.72266 19.2344 2.46094 18.6484 1.55469 17.4766C0.648438 16.3047 0.195312 14.6602 0.195312 12.543C0.195312 10.418 0.652344 8.76562 1.56641 7.58594C2.48828 6.39844 3.76172 5.80469 5.38672 5.80469C7.08984 5.80469 8.38672 6.43359 9.27734 7.69141H9.41797C9.28516 6.76172 9.21875 6.02734 9.21875 5.48828V0.765625H11.9844V19H9.82812L9.34766 17.3008H9.21875C8.33594 18.5898 7.04297 19.2344 5.33984 19.2344ZM6.07812 17.0078C7.21094 17.0078 8.03516 16.6914 8.55078 16.0586C9.06641 15.418 9.33203 14.3828 9.34766 12.9531V12.5664C9.34766 10.9336 9.08203 9.77344 8.55078 9.08594C8.01953 8.39844 7.1875 8.05469 6.05469 8.05469C5.08594 8.05469 4.33984 8.44922 3.81641 9.23828C3.29297 10.0195 3.03125 11.1367 3.03125 12.5898C3.03125 14.0273 3.28516 15.125 3.79297 15.8828C4.30078 16.6328 5.0625 17.0078 6.07812 17.0078ZM24.6289 15.3086C24.6289 16.5742 24.168 17.5469 23.2461 18.2266C22.3242 18.8984 21.0039 19.2344 19.2852 19.2344C17.5586 19.2344 16.1719 18.9727 15.125 18.4492V16.0703C16.6484 16.7734 18.0664 17.125 19.3789 17.125C21.0742 17.125 21.9219 16.6133 21.9219 15.5898C21.9219 15.2617 21.8281 14.9883 21.6406 14.7695C21.4531 14.5508 21.1445 14.3242 20.7148 14.0898C20.2852 13.8555 19.6875 13.5898 18.9219 13.293C17.4297 12.7148 16.418 12.1367 15.8867 11.5586C15.3633 10.9805 15.1016 10.2305 15.1016 9.30859C15.1016 8.19922 15.5469 7.33984 16.4375 6.73047C17.3359 6.11328 18.5547 5.80469 20.0938 5.80469C21.6172 5.80469 23.0586 6.11328 24.418 6.73047L23.5273 8.80469C22.1289 8.22656 20.9531 7.9375 20 7.9375C18.5469 7.9375 17.8203 8.35156 17.8203 9.17969C17.8203 9.58594 18.0078 9.92969 18.3828 10.2109C18.7656 10.4922 19.5938 10.8789 20.8672 11.3711C21.9375 11.7852 22.7148 12.1641 23.1992 12.5078C23.6836 12.8516 24.043 13.25 24.2773 13.7031C24.5117 14.1484 24.6289 14.6836 24.6289 15.3086ZM38.5625 6.03906V7.55078L36.3477 7.96094C36.5508 8.23438 36.7188 8.57031 36.8516 8.96875C36.9844 9.36719 37.0508 9.78906 37.0508 10.2344C37.0508 11.5703 36.5898 12.6211 35.668 13.3867C34.7461 14.1523 33.4766 14.5352 31.8594 14.5352C31.4453 14.5352 31.0703 14.5039 30.7344 14.4414C30.1406 14.8086 29.8438 15.2383 29.8438 15.7305C29.8438 16.0273 29.9805 16.25 30.2539 16.3984C30.5352 16.5469 31.0469 16.6211 31.7891 16.6211H34.0508C35.4805 16.6211 36.5664 16.9258 37.3086 17.5352C38.0508 18.1445 38.4219 19.0234 38.4219 20.1719C38.4219 21.6406 37.8164 22.7734 36.6055 23.5703C35.3945 24.3672 33.6445 24.7656 31.3555 24.7656C29.5898 24.7656 28.2422 24.4531 27.3125 23.8281C26.3828 23.2031 25.918 22.3125 25.918 21.1562C25.918 20.3594 26.168 19.6875 26.668 19.1406C27.1758 18.6016 27.8828 18.2266 28.7891 18.0156C28.4219 17.8594 28.1172 17.6094 27.875 17.2656C27.6406 16.9141 27.5234 16.5469 27.5234 16.1641C27.5234 15.6797 27.6602 15.2695 27.9336 14.9336C28.207 14.5977 28.6133 14.2656 29.1523 13.9375C28.4805 13.6484 27.9336 13.1797 27.5117 12.5312C27.0977 11.875 26.8906 11.1094 26.8906 10.2344C26.8906 8.82812 27.332 7.73828 28.2148 6.96484C29.1055 6.19141 30.3711 5.80469 32.0117 5.80469C32.3789 5.80469 32.7617 5.83203 33.1602 5.88672C33.5664 5.93359 33.8711 5.98438 34.0742 6.03906H38.5625ZM28.3789 21.0156C28.3789 21.6094 28.6445 22.0664 29.1758 22.3867C29.7148 22.707 30.4688 22.8672 31.4375 22.8672C32.9375 22.8672 34.0547 22.6523 34.7891 22.2227C35.5234 21.793 35.8906 21.2227 35.8906 20.5117C35.8906 19.9492 35.6875 19.5469 35.2812 19.3047C34.8828 19.0703 34.1367 18.9531 33.043 18.9531H30.957C30.168 18.9531 29.5391 19.1367 29.0703 19.5039C28.6094 19.8789 28.3789 20.3828 28.3789 21.0156ZM29.5625 10.2344C29.5625 11.0469 29.7695 11.6719 30.1836 12.1094C30.6055 12.5469 31.207 12.7656 31.9883 12.7656C33.582 12.7656 34.3789 11.9141 34.3789 10.2109C34.3789 9.36719 34.1797 8.71875 33.7812 8.26562C33.3906 7.80469 32.793 7.57422 31.9883 7.57422C31.1914 7.57422 30.5859 7.80078 30.1719 8.25391C29.7656 8.70703 29.5625 9.36719 29.5625 10.2344ZM52.3789 19H49.6133V11.0312C49.6133 10.0312 49.4102 9.28516 49.0039 8.79297C48.6055 8.30078 47.9688 8.05469 47.0938 8.05469C45.9297 8.05469 45.0781 8.39844 44.5391 9.08594C44 9.77344 43.7305 10.9258 43.7305 12.543V19H40.9766V6.03906H43.1328L43.5195 7.73828H43.6602C44.0508 7.12109 44.6055 6.64453 45.3242 6.30859C46.043 5.97266 46.8398 5.80469 47.7148 5.80469C50.8242 5.80469 52.3789 7.38672 52.3789 10.5508V19Z" fill="#282f35"/>
</svg>
